<svg width="40" height="40" viewBox="0 0 40 40" fill="none" xmlns="http://www.w3.org/2000/svg">
<path fill-rule="evenodd" clip-rule="evenodd" d="M2.14798 4.60469C2.36629 3.94976 3.07419 3.59581 3.72911 3.81412L4.17064 3.96129C4.19264 3.96862 4.21456 3.97594 4.23643 3.98322C5.28038 4.33116 6.16259 4.62521 6.85631 4.94792C7.59371 5.29097 8.23353 5.71612 8.71869 6.38924C9.20384 7.06237 9.40486 7.8038 9.49711 8.61184C9.58391 9.372 9.58388 10.3019 9.58383 11.4024V15.8333C9.58383 18.2257 9.58649 19.8942 9.75574 21.153C9.92016 22.376 10.2209 23.0237 10.6822 23.485C11.1435 23.9462 11.7911 24.247 13.014 24.4114C14.2729 24.5807 15.9415 24.5834 18.3338 24.5834H30.0005C30.6908 24.5834 31.2505 25.1429 31.2505 25.8334C31.2505 26.5237 30.6908 27.0834 30.0005 27.0834H18.2423C15.9631 27.0834 14.1259 27.0834 12.6809 26.889C11.1807 26.6874 9.91761 26.2559 8.91441 25.2527C7.91123 24.2495 7.47973 22.9864 7.27804 21.4862C7.08378 20.0412 7.08379 18.204 7.08383 15.9248V11.4717C7.08383 10.2834 7.08194 9.49709 7.01324 8.89541C6.94821 8.32567 6.83463 8.05085 6.69059 7.85102C6.54656 7.65119 6.32176 7.45652 5.80183 7.21466C5.25274 6.95922 4.50741 6.70877 3.38006 6.33301L2.93854 6.18582C2.28363 5.96752 1.92968 5.25962 2.14798 4.60469Z" fill="#1C274C"/>
<path opacity="0.5" d="M9.5752 10C9.58346 10.4319 9.58346 10.8993 9.58345 11.4023L9.58343 15.8333C9.58343 18.2257 9.5861 19.8942 9.75535 21.1532C9.78005 21.3368 9.80783 21.5077 9.83876 21.6667H26.7035C28.3025 21.6667 29.102 21.6667 29.7282 21.2538C30.3543 20.8408 30.6693 20.106 31.2992 18.6363L32.0135 16.9697C33.3627 13.8216 34.0372 12.2476 33.2962 11.1238C32.5552 10 30.8427 10 27.4178 10H9.5752Z" fill="#1C274C"/>
<path d="M12.5 30C13.8807 30 15 31.1193 15 32.5C15 33.8807 13.8807 35 12.5 35C11.1193 35 10 33.8807 10 32.5C10 31.1193 11.1193 30 12.5 30Z" fill="#1C274C"/>
<path d="M30 32.5001C30 31.1193 28.8807 30.0001 27.5 30.0001C26.1193 30.0001 25 31.1193 25 32.5001C25 33.8808 26.1193 35.0001 27.5 35.0001C28.8807 35.0001 30 33.8808 30 32.5001Z" fill="#1C274C"/>
</svg>
