<svg width="114" height="19" viewBox="0 0 114 19" fill="none" xmlns="http://www.w3.org/2000/svg">
<path d="M12.984 18C12.824 18 12.688 17.944 12.576 17.832C12.464 17.72 12.408 17.584 12.408 17.424V4.2H7.2V7.224C7.2 9.144 7.096 10.784 6.888 12.144C6.696 13.504 6.376 14.608 5.928 15.456C5.48 16.288 4.872 16.912 4.104 17.328C3.336 17.728 2.376 17.944 1.224 17.976C1.064 17.992 0.92 17.944 0.792 17.832C0.68 17.704 0.624 17.56 0.624 17.4V15.6C0.624 15.264 0.808 15.072 1.176 15.024C1.656 14.944 2.064 14.72 2.4 14.352C2.752 13.984 3.04 13.464 3.264 12.792C3.504 12.12 3.68 11.288 3.792 10.296C3.904 9.288 3.96 8.12 3.96 6.792V1.776C3.96 1.616 4.016 1.48 4.128 1.368C4.24 1.256 4.376 1.2 4.536 1.2H15.144C15.32 1.2 15.464 1.256 15.576 1.368C15.688 1.48 15.744 1.624 15.744 1.8V17.424C15.744 17.584 15.688 17.72 15.576 17.832C15.464 17.944 15.32 18 15.144 18H12.984ZM26.203 18.24C24.779 18.24 23.555 18.008 22.531 17.544C21.507 17.064 20.707 16.336 20.131 15.36C19.555 14.368 19.243 13.136 19.195 11.664C19.179 10.976 19.171 10.296 19.171 9.624C19.171 8.952 19.179 8.264 19.195 7.56C19.243 6.104 19.563 4.888 20.155 3.912C20.747 2.936 21.555 2.2 22.579 1.704C23.619 1.208 24.827 0.959999 26.203 0.959999C27.579 0.959999 28.787 1.208 29.827 1.704C30.867 2.2 31.683 2.936 32.275 3.912C32.867 4.888 33.187 6.104 33.235 7.56C33.267 8.264 33.283 8.952 33.283 9.624C33.283 10.296 33.267 10.976 33.235 11.664C33.187 13.136 32.875 14.368 32.299 15.36C31.723 16.336 30.915 17.064 29.875 17.544C28.851 18.008 27.627 18.24 26.203 18.24ZM26.203 15.48C27.243 15.48 28.091 15.176 28.747 14.568C29.403 13.944 29.755 12.936 29.803 11.544C29.835 10.84 29.851 10.192 29.851 9.6C29.851 8.992 29.835 8.344 29.803 7.656C29.771 6.728 29.595 5.976 29.275 5.4C28.971 4.808 28.555 4.384 28.027 4.128C27.499 3.856 26.891 3.72 26.203 3.72C25.531 3.72 24.931 3.856 24.403 4.128C23.875 4.384 23.451 4.808 23.131 5.4C22.827 5.976 22.659 6.728 22.627 7.656C22.611 8.344 22.603 8.992 22.603 9.6C22.603 10.192 22.611 10.84 22.627 11.544C22.675 12.936 23.027 13.944 23.683 14.568C24.339 15.176 25.179 15.48 26.203 15.48ZM37.2605 18C37.1005 18 36.9645 17.944 36.8525 17.832C36.7405 17.72 36.6845 17.584 36.6845 17.424V1.8C36.6845 1.624 36.7405 1.48 36.8525 1.368C36.9645 1.256 37.1005 1.2 37.2605 1.2H47.0525C47.2285 1.2 47.3725 1.256 47.4845 1.368C47.5965 1.48 47.6525 1.624 47.6525 1.8V3.48C47.6525 3.64 47.5965 3.776 47.4845 3.888C47.3725 4 47.2285 4.056 47.0525 4.056H40.0205V17.424C40.0205 17.584 39.9645 17.72 39.8525 17.832C39.7565 17.944 39.6205 18 39.4445 18H37.2605ZM56.4218 18.24C54.9978 18.24 53.7738 18.008 52.7498 17.544C51.7258 17.064 50.9258 16.336 50.3498 15.36C49.7738 14.368 49.4618 13.136 49.4138 11.664C49.3978 10.976 49.3898 10.296 49.3898 9.624C49.3898 8.952 49.3978 8.264 49.4138 7.56C49.4618 6.104 49.7818 4.888 50.3738 3.912C50.9658 2.936 51.7738 2.2 52.7978 1.704C53.8378 1.208 55.0458 0.959999 56.4218 0.959999C57.7978 0.959999 59.0058 1.208 60.0458 1.704C61.0858 2.2 61.9018 2.936 62.4938 3.912C63.0858 4.888 63.4058 6.104 63.4538 7.56C63.4858 8.264 63.5018 8.952 63.5018 9.624C63.5018 10.296 63.4858 10.976 63.4538 11.664C63.4058 13.136 63.0938 14.368 62.5178 15.36C61.9418 16.336 61.1337 17.064 60.0938 17.544C59.0698 18.008 57.8458 18.24 56.4218 18.24ZM56.4218 15.48C57.4618 15.48 58.3098 15.176 58.9658 14.568C59.6218 13.944 59.9738 12.936 60.0218 11.544C60.0538 10.84 60.0698 10.192 60.0698 9.6C60.0698 8.992 60.0538 8.344 60.0218 7.656C59.9898 6.728 59.8138 5.976 59.4938 5.4C59.1898 4.808 58.7738 4.384 58.2458 4.128C57.7178 3.856 57.1098 3.72 56.4218 3.72C55.7498 3.72 55.1498 3.856 54.6218 4.128C54.0938 4.384 53.6698 4.808 53.3498 5.4C53.0458 5.976 52.8778 6.728 52.8458 7.656C52.8298 8.344 52.8218 8.992 52.8218 9.6C52.8218 10.192 52.8298 10.84 52.8458 11.544C52.8938 12.936 53.2458 13.944 53.9018 14.568C54.5578 15.176 55.3978 15.48 56.4218 15.48ZM71.1753 18C71.0153 18 70.8793 17.944 70.7673 17.832C70.6553 17.72 70.5993 17.584 70.5993 17.424V4.152H66.1593C65.9993 4.152 65.8633 4.096 65.7513 3.984C65.6393 3.872 65.5833 3.736 65.5833 3.576V1.8C65.5833 1.624 65.6393 1.48 65.7513 1.368C65.8633 1.256 65.9993 1.2 66.1593 1.2H78.3993C78.5753 1.2 78.7193 1.256 78.8313 1.368C78.9433 1.48 78.9993 1.624 78.9993 1.8V3.576C78.9993 3.736 78.9433 3.872 78.8313 3.984C78.7193 4.096 78.5753 4.152 78.3993 4.152H73.9833V17.424C73.9833 17.584 73.9273 17.72 73.8153 17.832C73.7033 17.944 73.5593 18 73.3833 18H71.1753ZM82.2605 18C82.1005 18 81.9645 17.944 81.8525 17.832C81.7405 17.72 81.6845 17.576 81.6845 17.4V1.8C81.6845 1.624 81.7405 1.48 81.8525 1.368C81.9645 1.256 82.1085 1.2 82.2845 1.2H84.4445C84.6205 1.2 84.7565 1.256 84.8525 1.368C84.9645 1.48 85.0205 1.624 85.0205 1.8V12.816L92.9165 1.584C92.9805 1.504 93.0685 1.424 93.1805 1.344C93.2925 1.248 93.4365 1.2 93.6125 1.2H95.6045C95.7645 1.2 95.9005 1.256 96.0125 1.368C96.1245 1.48 96.1805 1.624 96.1805 1.8V17.424C96.1805 17.584 96.1245 17.72 96.0125 17.832C95.9005 17.944 95.7645 18 95.6045 18H93.4445C93.2685 18 93.1245 17.944 93.0125 17.832C92.9005 17.72 92.8445 17.584 92.8445 17.424V6.624L84.9725 17.616C84.9245 17.68 84.8445 17.76 84.7325 17.856C84.6205 17.952 84.4685 18 84.2765 18H82.2605ZM100.745 18C100.585 18 100.449 17.952 100.337 17.856C100.225 17.744 100.169 17.6 100.169 17.424V1.8C100.169 1.624 100.225 1.48 100.337 1.368C100.449 1.256 100.585 1.2 100.745 1.2H113.321C113.497 1.2 113.641 1.256 113.753 1.368C113.865 1.48 113.921 1.624 113.921 1.8V17.424C113.921 17.584 113.865 17.72 113.753 17.832C113.641 17.944 113.497 18 113.321 18H111.161C111.001 18 110.865 17.944 110.753 17.832C110.641 17.72 110.585 17.584 110.585 17.424V4.2H103.505V17.424C103.505 17.584 103.449 17.72 103.337 17.832C103.241 17.944 103.105 18 102.929 18H100.745Z" fill="black"/>
</svg>
