<svg width="19" height="17" viewBox="0 0 19 17" fill="none" xmlns="http://www.w3.org/2000/svg">
<path d="M9.8176 7.25C7.0028 7.25 6.4324 3.81 6.4324 3.81C6.0976 2.02 7.1144 0 9.7804 0C12.4588 0 13.4756 2.02 13.1408 3.81C13.1408 3.81 12.6324 7.25 9.8176 7.25ZM9.7804 9.5C11.2973 9.49571 13.1904 8 13.1904 8C16.154 8 18.7952 10.33 18.7952 12.53V15.02C18.7952 15.02 14.2692 16.15 9.8176 16.15C5.2916 16.15 0.839996 15.02 0.839996 15.02V12.53C0.839996 10.28 3.2456 8.05 6.3828 8.05C6.3828 8.05 8.27922 9.50425 9.7804 9.5Z" fill="black"/>
</svg>
