<svg width="27" height="25" viewBox="0 0 27 25" fill="none" xmlns="http://www.w3.org/2000/svg">
<path d="M19.6722 12.5011L21.0394 11.1886C21.5168 10.7303 22.1245 10.4803 22.7864 10.4178V9.37613L16.276 3.12613H5.42527C4.22084 3.12613 3.25513 4.05321 3.25513 5.20946V19.7928C3.25513 20.9386 4.22084 21.8761 5.42527 21.8761H11.9357V19.9282L12.0767 19.7928H5.42527V5.20946H13.0208V12.5011H19.6722ZM15.1909 4.68863L21.1588 10.4178H15.1909V4.68863ZM20.7573 14.4074L22.9708 16.5324L16.3194 22.9178H14.1058V20.7928L20.7573 14.4074ZM24.7938 14.7824L23.7304 15.8032L21.5168 13.6782L22.5802 12.6574C22.7864 12.449 23.1444 12.449 23.3615 12.6574L24.7938 14.0324C25.0108 14.2407 25.0108 14.5845 24.7938 14.7824Z" fill="black"/>
</svg>
